<svg width="114" height="112" viewBox="0 0 114 112" fill="none" xmlns="http://www.w3.org/2000/svg">
<path d="M129.984 58.2301C129.893 56.9433 129.43 55.7105 128.653 54.6813C127.875 53.6521 126.815 52.8707 125.602 52.4318L90.3933 37.2691L82.8932 -0.423058C82.6576 -1.65308 82.0804 -2.79187 81.2275 -3.70898C80.3747 -4.62609 79.2807 -5.28442 78.071 -5.60856C76.8613 -5.9327 75.5848 -5.90954 74.3876 -5.54173C73.1905 -5.17392 72.1211 -4.47633 71.3021 -3.52889L45.978 25.299L7.88782 20.8903C6.65063 20.7404 5.39617 20.9402 4.26681 21.4672C3.13745 21.9942 2.1784 22.8271 1.49851 23.8716C0.857195 24.8984 0.507597 26.0805 0.487234 27.291C0.466871 28.5015 0.776512 29.6946 1.38293 30.7425L21.0762 63.6266L4.83613 98.4776C4.28275 99.6232 4.06877 100.903 4.21945 102.167C4.37013 103.43 4.87917 104.624 5.68647 105.607C6.4737 106.564 7.51212 107.283 8.68514 107.683C9.85817 108.082 11.1194 108.147 12.3272 107.87L49.9044 99.5106L78.1217 125.568C78.8888 126.32 79.8382 126.86 80.8768 127.135C82.2395 127.505 83.6847 127.433 85.0039 126.929C86.1947 126.481 87.2325 125.702 87.9947 124.683C88.7569 123.664 89.2116 122.449 89.3052 121.18L92.6663 82.8781L126.163 64.2463C127.304 63.7077 128.269 62.8565 128.945 61.7916C129.621 60.7266 129.982 59.4917 129.984 58.2301ZM83.4791 73.3766C82.5282 73.9047 81.7209 74.6574 81.1277 75.5692C80.5345 76.4809 80.1735 77.524 80.076 78.6073L77.4828 106.831L56.7211 87.4645C55.9224 86.7187 54.9526 86.1807 53.897 85.8979C52.8415 85.6151 51.7326 85.5961 50.668 85.8425L23.0045 92.2338L34.8707 66.4946C35.3279 65.5077 35.5367 64.4238 35.4789 63.3376C35.4211 62.2514 35.0983 61.1959 34.5389 60.2631L20.3967 35.7682L48.5596 39.1043C49.6416 39.2387 50.7402 39.1056 51.7589 38.7168C52.7776 38.3279 53.6853 37.6951 54.4026 36.8739L72.4389 15.4107L77.9539 43.2535C78.1645 44.3233 78.6342 45.3252 79.322 46.1713C80.0098 47.0174 80.8946 47.6819 81.899 48.1065L107.957 59.2988L83.4791 73.3766Z" fill="#EDEFFC"/>
</svg>
